<svg width="160" height="160" viewBox="0 0 160 160" fill="none" xmlns="http://www.w3.org/2000/svg">
<path d="M7.00284 45.8736V34.5455H86.0938V45.8736H52.9332V140H40.1634V45.8736H7.00284ZM143.529 102.5H136.924C136.534 100.6 135.85 98.9311 134.873 97.4929C133.915 96.0547 132.743 94.8473 131.358 93.8707C129.991 92.8764 128.473 92.1307 126.804 91.6335C125.135 91.1364 123.394 90.8878 121.583 90.8878C118.281 90.8878 115.289 91.7223 112.608 93.3913C109.945 95.0604 107.823 97.5195 106.242 100.769C104.68 104.018 103.899 108.004 103.899 112.727C103.899 117.45 104.68 121.436 106.242 124.686C107.823 127.935 109.945 130.394 112.608 132.063C115.289 133.732 118.281 134.567 121.583 134.567C123.394 134.567 125.135 134.318 126.804 133.821C128.473 133.324 129.991 132.587 131.358 131.61C132.743 130.616 133.915 129.4 134.873 127.962C135.85 126.506 136.534 124.837 136.924 122.955H143.529C143.032 125.742 142.127 128.237 140.813 130.439C139.499 132.64 137.865 134.513 135.912 136.058C133.959 137.585 131.766 138.748 129.334 139.547C126.919 140.346 124.335 140.746 121.583 140.746C116.931 140.746 112.794 139.609 109.172 137.337C105.55 135.064 102.7 131.832 100.623 127.642C98.5454 123.452 97.5067 118.48 97.5067 112.727C97.5067 106.974 98.5454 102.003 100.623 97.8125C102.7 93.6222 105.55 90.3906 109.172 88.1179C112.794 85.8452 116.931 84.7088 121.583 84.7088C124.335 84.7088 126.919 85.1083 129.334 85.9073C131.766 86.7063 133.959 87.8782 135.912 89.4229C137.865 90.9499 139.499 92.8143 140.813 95.016C142.127 97.1999 143.032 99.6946 143.529 102.5Z" fill="#3CFFD0"/>
</svg>
